<svg width="27" height="42" viewBox="0 0 27 42" fill="none" xmlns="http://www.w3.org/2000/svg">
<path d="M26.399 41.0896C26.7843 40.7697 27 40.3403 27 39.8931C27 39.446 26.7843 39.0166 26.399 38.6967L4.87233 20.7895L26.399 2.88583C26.7843 2.56595 27 2.13654 27 1.68939C27 1.24224 26.7843 0.812828 26.399 0.492947C26.2117 0.336967 25.9878 0.212994 25.7404 0.128342C25.4931 0.0436896 25.2273 7.9982e-05 24.9589 7.99628e-05C24.6904 7.99436e-05 24.4246 0.0436895 24.1773 0.128341C23.93 0.212993 23.706 0.336967 23.5188 0.492946L0.627078 19.5393C0.225022 19.8738 2.27313e-06 20.3224 2.22318e-06 20.7895C2.17323e-06 21.2566 0.225022 21.7052 0.627077 22.0396L23.5187 41.086C23.706 41.242 23.93 41.3659 24.1773 41.4506C24.4246 41.5352 24.6904 41.5789 24.9589 41.5789C25.2273 41.5789 25.4931 41.5352 25.7404 41.4506C25.9878 41.3659 26.2117 41.242 26.399 41.086L26.399 41.0896Z" fill="#BFC1C7"/>
</svg>
