<svg width="15" height="16" viewBox="0 0 15 16" fill="none" xmlns="http://www.w3.org/2000/svg">
<path d="M14.7916 12.7009L12.6767 14.747C12.3646 15.0593 11.9508 15.1651 11.5478 15.1656C9.76565 15.1135 8.08113 14.2597 6.69803 13.3829C4.42775 11.772 2.34468 9.77454 1.0373 7.36069C0.535877 6.34849 -0.0524727 5.05699 0.00373975 3.92717C0.00875225 3.50216 0.126177 3.08504 0.433065 2.81109L2.54789 0.749427C2.98704 0.385097 3.41173 0.511063 3.69275 0.935439L5.39414 4.08219C5.57321 4.45499 5.47049 4.85442 5.20331 5.1208L4.42416 5.88035C4.37606 5.94462 4.34544 6.01777 4.34466 6.09738C4.64344 7.2254 5.54858 8.26509 6.34818 8.9806C7.14776 9.69611 8.00724 10.6655 9.12289 10.895C9.26079 10.9325 9.4297 10.9457 9.52836 10.8562L10.4347 9.95715C10.7472 9.72618 11.1983 9.61328 11.5319 9.80215H11.5478L14.6166 11.5693C15.0672 11.8447 15.1141 12.377 14.7916 12.7009Z" fill="#EF7C00"/>
</svg>
