<svg width="14" height="15" viewBox="0 0 14 15" fill="none" xmlns="http://www.w3.org/2000/svg">
<path d="M6.5625 7.31514C8.63379 7.31514 10.3125 5.67781 10.3125 3.65757C10.3125 1.63733 8.63379 0 6.5625 0C4.49121 0 2.8125 1.63733 2.8125 3.65757C2.8125 5.67781 4.49121 7.31514 6.5625 7.31514ZM9.1875 8.22953H8.69824C8.04785 8.521 7.32422 8.68673 6.5625 8.68673C5.80078 8.68673 5.08008 8.521 4.42676 8.22953H3.9375C1.76367 8.22953 0 9.94973 0 12.07V13.2587C0 14.0159 0.629883 14.6303 1.40625 14.6303H11.7188C12.4951 14.6303 13.125 14.0159 13.125 13.2587V12.07C13.125 9.94973 11.3613 8.22953 9.1875 8.22953Z" fill="#EF7C00"/>
</svg>
